<?xml version="1.0" encoding="UTF-8"?> <svg xmlns="http://www.w3.org/2000/svg" id="Logo-Horizontal" version="1.1" viewBox="0 0 717.7 229.865"><defs><style> .cls-1 { isolation: isolate; opacity: .75; } .cls-1, .cls-2, .cls-3, .cls-4, .cls-5, .cls-6, .cls-7, .cls-8, .cls-9, .cls-10 { stroke-width: 0px; } .cls-1, .cls-10 { fill: #ebd599; } .cls-2 { fill: #f3ecad; } .cls-3 { fill: #e7ccae; } .cls-4 { fill: #2e3237; } .cls-5 { fill: #cb344a; } .cls-6 { fill: #eef7fa; } .cls-7 { fill: #e5cba4; } .cls-8 { fill: #717272; } .cls-11 { opacity: .8; } .cls-9 { fill: #c8b39a; } </style></defs><g id="Logo-Horizontal-2" data-name="Logo-Horizontal"><g><g><path class="cls-5" d="M55.366,100.315s-36.058,25.38-37.468,35.049l2.706-.556s43.18-28.62,77.408-32.11l.775-4.344-43.421,1.962Z"></path><path class="cls-5" d="M111.969,96.688l-28.402,20.145,1.535,1.232c1.158-.934,50.451-15.988,50.451-15.988l10.393-6.516c-6.973.868-33.977,1.127-33.977,1.127Z"></path><path class="cls-5" d="M136.654,121.053c20.168,0,50.4-19.752,50.4-19.752l-9.773-1.86c-.483.483-15.759-.535-15.759-.535l-7.251-2.014-17.324,19.74-1.41,3.425c1.246-.506,1.118.995,1.118.995Z"></path></g><path class="cls-5" d="M202.466,184.047l-6.231,1.754-28.787-.622-18.008-14.004-21.766,5.446-25.175-2.178-14.097,15.404-26.452,7.902-13.207-4.095c-.421-.363-.665-.572-.665-.572l5.928,14.516s13.428,14.396,20.928,16.089c7.499,1.693,21.049-.122,31.211-1.695,10.161-1.572,18.267-5.202,21.532-11.127,3.265-5.929,3.75-7.622,3.75-7.622,0,0,9.679,13.67,18.026,15.243,8.346,1.572,33.146-6.897,33.146-6.897,0,0,15.123-4.112,17.782-9.314,2.662-5.202,9.679-22.258,9.679-22.258l-7.593,4.031ZM51.513,195.873c-.139-.064-.279-.129-.418-.192-.992-.856-1.803-1.556-2.333-2.012l2.751,2.204Z"></path><g><path class="cls-2" d="M226.92,81.211c-.063-.778-.148-1.555-.243-2.328-.067-.548-.154-1.121-.249-1.65-2.078-1.749-4.439-3.304-6.897-4.717-2.664-1.556-5.451-2.95-8.295-4.245-2.825-1.333-5.727-2.539-8.645-3.716-1.457-.591-2.926-1.165-4.401-1.711-1.47-.574-2.955-1.108-4.444-1.65,3.125.518,6.218,1.227,9.287,2.017,1.997.517,3.983,1.095,5.956,1.711C194.954,28.242,161.399,4.355,124.763,4.355S54.569,28.242,40.538,64.922c1.973-.616,3.959-1.195,5.953-1.711,3.074-.79,6.168-1.499,9.291-2.017-1.494.542-2.975,1.076-4.45,1.65-1.468.547-2.939,1.121-4.401,1.711-2.919,1.177-5.812,2.384-8.644,3.716-2.839,1.294-5.628,2.688-8.292,4.245-2.458,1.413-4.817,2.969-6.903,4.717-.087.53-.175,1.102-.243,1.65-.094.773-.18,1.55-.243,2.328-.137,1.563-.192,3.132-.205,4.706-.031,3.144.181,6.287.579,9.397.429,3.119,1.001,6.218,1.848,9.213.417,1.501.89,2.98,1.437,4.413.275.715.574,1.419.885,2.104.155.341.317.678.479,1.001l.199.38c.231.117.473.236.703.348l1.395.666c.778.353,1.854.864,2.744,1.263.05-.043.1-.087.143-.132l-2.59-9.864c.549-.151,5.467-1.419,13.942-3.032-.684-.13-1.374-.279-2.053-.441-1.929-.48-3.834-1.065-5.677-1.812-.915-.386-1.817-.808-2.676-1.292-.86-.494-1.706-1.052-2.36-1.794,9.312,3.038,28.552,1.662,45.654-.105,15.642-1.612,31.32-2.657,47.08-2.688,15.761.031,31.445,1.076,47.08,2.688,17.11,1.767,36.35,3.144,45.661.105-.654.742-1.498,1.301-2.358,1.794-.859.484-1.76.906-2.674,1.292-1.845.747-3.747,1.333-5.677,1.812-.286.068-.575.131-.861.192,9.293,1.724,14.703,3.125,15.282,3.28l-2.477,9.397c.498-.225,1.001-.441,1.495-.665l1.393-.666c.232-.112.467-.231.703-.348l.192-.38c.169-.323.331-.66.486-1.001.313-.685.612-1.389.885-2.104.548-1.432,1.022-2.912,1.438-4.413.847-2.995,1.419-6.094,1.848-9.213.4-3.111.61-6.255.581-9.397-.013-1.571-.07-3.14-.207-4.703Z"></path><path class="cls-3" d="M135.327,211.658c-1.233.185-2.466.342-3.692.435-.79.038-1.627.118-2.386.118l-.28.006c.952-2.129,1.676-3.778,2.224-5.028,1.116,1.251,2.535,2.801,4.134,4.469Z"></path><path class="cls-3" d="M138.008,214.39c3.829,3.791,8.572,5.963,13.794,6.349-8.771,3.562-17.036,4.936-23.403,5.365-6.348.425-12.783-.323-19.089-2.052.528-.095.915-.162,1.382-.219.518-.063,11.826-1.538,16.924-9.117l.479.01,1.251-.01c.847,0,1.616-.07,2.426-.101,1.924-.167,3.804-.441,5.652-.815.194.198.386.392.584.59Z"></path><path class="cls-8" d="M148.858,100.894c-.367.479-.778,1.007-1.214,1.556-2.24,2.832-5.346,6.454-9.031,9.997-4.283-.132-8.684-.205-13.214-.205-7.486,0-14.664.198-21.48.53,9.63-3.997,21.2-7.9,33.73-10.246,3.659-.693,7.406-1.247,11.21-1.632Z"></path><path class="cls-8" d="M92.493,105.205c-3.437,2.415-7.32,5.497-11.085,9.236-9.642.965-18.051,2.134-24.991,3.256,10.669-4.904,22.842-9.417,36.075-12.492Z"></path><path class="cls-8" d="M210.29,125.109l-3.921,27.438-18.786,13.158-48.995-5.57-7.375-24.289c-.175-.591-.673-1.025-1.284-1.125-1.816-.293-3.422-.443-4.76-.443s-2.944.149-4.768.443c-.605.1-1.101.534-1.282,1.125l-7.195,23.696-48.722,10.842-19.307-13.525-3.804-30.79c.829-.468,1.67-.934,2.521-1.401,1.195-.257,2.539-.53,4.027-.816l3.585,29.053c.056.454.306.859.679,1.121l13.282,9.307c.273.185.598.285.921.285.117,0,.231-.012.355-.038l40.058-8.913c.138-.031.275-.08.399-.144.373-.198.666-.54.79-.958l7.213-23.752c1.935-.498,6.891-1.656,11.247-1.656s9.305,1.158,11.241,1.656l7.213,23.752c.187.616.723,1.057,1.363,1.132l40.058,4.55c.388.043.784-.058,1.103-.28l13.29-9.299c.359-.255.603-.656.664-1.096l3.548-24.822c2.666.514,4.895.98,6.643,1.358Z"></path><path class="cls-8" d="M215.239,107.902l-3.448,13.082c-7.052-1.555-22.545-4.606-43.632-6.659,6.89-2.937,13.905-6.622,20.314-11.228,12.548,1.773,21.761,3.672,26.766,4.805Z"></path><g><path class="cls-7" d="M73.976,148.831c2.731-1.476,5.818-1.257,10.649-1.25.518.013,1.052.006,1.611-.006.475-.006.952-.013,1.458-.025,4.978-.049,9.118.424,9.045-7.394-.075-7.817-3.548-14.134-8.521-14.085-4.979.043-9.796,6.447-9.498,14.26.081,2.035.38,3.503.86,4.562-4.34,1.087-5.535,3.771-5.603,3.939ZM133.833,116.677c-1.929,1.563-3.964,3.024-6.082,4.301l-7.065,4.264c-4.431.54-8.277,1.636-8.495,1.7-.13.036-.254.092-.367.162-.343.198-.604.527-.729.92l-7.195,23.708-38.453,8.552-12.111-8.483-3.524-28.545c6.878-1.263,16.077-2.725,27.126-3.963-1.184,1.419-2.334,2.906-3.424,4.467l-6.578,9.443,9.578-6.386c.143-.1,6.242-4.112,16.22-8.993,9.944-.746,20.919-1.227,32.663-1.227,2.863-.001,5.672.031,8.436.08Z"></path><path class="cls-7" d="M175.939,145.626c-.049-.185-1.095-3.329-5.727-2.778.534-1.162.772-2.73.604-4.878-.612-7.8-5.148-13.998-10.122-13.825-4.973.176-8.16,6.641-7.885,14.459.273,7.811,4.45,7.757,9.423,7.582,6.686-.124,10.358-2.178,13.707-.56ZM200.481,123.164l-3.467,24.269-12.212,8.55-38.402-4.364-7.165-23.596c-.162-.523-.572-.926-1.095-1.082-.238-.07-4.992-1.425-10.034-1.862l.921-.061c.796-.057,14.042-1.681,29.858-7.134,17.515,1.345,31.817,3.499,41.596,5.28Z"></path></g><g><path class="cls-9" d="M73.976,148.831c2.731-1.476,5.818-1.257,10.649-1.25.518.013,1.052.006,1.611-.006.475-.006.952-.013,1.458-.025,4.978-.049,9.118.424,9.045-7.394-.075-7.817-3.548-14.134-8.521-14.085-4.979.043-9.796,6.447-9.498,14.26.081,2.035.38,3.503.86,4.562-4.34,1.087-5.535,3.771-5.603,3.939ZM133.833,116.677c-1.929,1.563-3.964,3.024-6.082,4.301l-7.065,4.264c-4.431.54-8.277,1.636-8.495,1.7-.13.036-.254.092-.367.162-.343.198-.604.527-.729.92l-7.195,23.708-38.453,8.552-12.111-8.483-3.524-28.545c6.878-1.263,16.077-2.725,27.126-3.963-1.184,1.419-2.334,2.906-3.424,4.467l-6.578,9.443,9.578-6.386c.143-.1,6.242-4.112,16.22-8.993,9.944-.746,20.919-1.227,32.663-1.227,2.863-.001,5.672.031,8.436.08Z"></path><path class="cls-9" d="M175.939,145.626c-.049-.185-1.095-3.329-5.727-2.778.534-1.162.772-2.73.604-4.878-.612-7.8-5.148-13.998-10.122-13.825-4.973.176-8.16,6.641-7.885,14.459.273,7.811,4.45,7.757,9.423,7.582,6.686-.124,10.358-2.178,13.707-.56ZM200.481,123.164l-3.467,24.269-12.212,8.55-38.402-4.364-7.165-23.596c-.162-.523-.572-.926-1.095-1.082-.238-.07-4.992-1.425-10.034-1.862l.921-.061c.796-.057,14.042-1.681,29.858-7.134,17.515,1.345,31.817,3.499,41.596,5.28Z"></path></g><path class="cls-3" d="M217.244,133.838c.589.486,1.056,1.743.528,7.599-.648,7.17-3.662,19.756-5.528,21.785-2.06.399-6.379-.074-9.013-.689.455-1.806.585-2.672.953-4.519l4.606-3.222c.367-.255.61-.656.672-1.09l3.219-22.556c1.954,1.057,3.964,2.2,4.563,2.694Z"></path><path class="cls-3" d="M47.436,163.277c.231.816.473,1.63.723,2.433-2.479.728-7.526,1.425-9.809,1.027-1.892-1.906-5.422-15.024-6.194-21.991-.629-5.644-.188-6.864.386-7.34.666-.56,3.161-1.979,5.322-3.137l2.919,23.695c.056.455.298.859.679,1.121l5.973,4.191Z"></path><path class="cls-3" d="M140.611,163.609l-.175,1.512s-5.308,4.922-13.854,6.024c-8.546,1.101-15.262-4.151-15.262-4.151.28.913.679,2.975,2.614,4.735-2.277-.272-4.736-.455-7.315-.455-.932,0-1.873.027-2.782.071-5.26.275-12.658,8.227-17.861,16.239-2.553.808-10.532,3.341-19.768,6.068-8.621-11.946-12.86-24.151-13.29-25.414l.006-.007c-.174-.486-.349-.972-.511-1.469l2.217,1.55v.006l5.476,3.834,1.831,1.276c.273.194.597.293.92.293.118,0,.236-.013.353-.036l50.33-11.205c.564-.124,1.021-.548,1.188-1.101l7.177-23.627c1.239-.168,2.327-.255,3.261-.255.928,0,2.023.087,3.262.255l7.386,24.33c.188.616.723,1.065,1.357,1.132l3.44.394Z"></path><path class="cls-3" d="M198.061,162.302l1.625-1.14c-.269,1.127-.561,2.248-.866,3.356-2.258,7.24-4.925,13.643-7.885,19.3-.655.045-1.345.071-2.086.071-2.285,0-4.619-.194-7.202-.43-4.482-.411-11.596-1.226-13.842-1.487-1.935-1.543-8.557-6.805-14.067-11.141-.217-.175-.403-.337-.585-.487-.97-.82-2.073-1.753-4.307-1.753-2.029,0-4.992.739-12.154,2.906,3.722-2.782,3.746-6.373,3.746-6.373l.175-1.512,47.217,5.364c.385.044.783-.056,1.107-.279l4.744-3.323,4.381-3.071Z"></path><path class="cls-10" d="M163.311,62.963c.144,4.2.038,11.812-1.918,18.94-.079.275-.067.555,0,.816-2.489-.262-4.979-.486-7.469-.685,2.795-5.856,3.404-12.093,3.537-14.29,2.146-1.526,4.283-3.356,5.851-4.781Z"></path><path class="cls-10" d="M92.07,67.743c.13,2.197.739,8.421,3.53,14.272-2.49.198-4.979.429-7.464.691.067-.256.075-.53,0-.804-1.954-7.114-2.053-14.732-1.917-18.94,1.568,1.426,3.696,3.256,5.851,4.781Z"></path><path class="cls-4" d="M175.939,145.626c-3.349-1.618-7.021.437-13.706.561-4.973.175-9.149.229-9.423-7.582-.275-7.818,2.912-14.283,7.885-14.459,4.973-.174,9.51,6.025,10.122,13.825.168,2.148-.07,3.716-.604,4.878,4.63-.553,5.677,2.59,5.725,2.776ZM160.31,134.18c1.401-.031,2.52-1.189,2.496-2.59-.024-1.407-1.182-2.527-2.59-2.495-1.406.023-2.52,1.182-2.494,2.589.024,1.4,1.182,2.521,2.587,2.496Z"></path><circle class="cls-6" cx="160.262" cy="131.628" r="2.542"></circle><path class="cls-4" d="M96.737,140.154c.073,7.818-4.066,7.345-9.045,7.394-.504.013-.983.019-1.458.025-.559.013-1.094.019-1.611.006-4.83-.006-7.918-.225-10.649,1.25.067-.168,1.263-2.852,5.603-3.94-.48-1.059-.78-2.527-.86-4.562-.298-7.811,4.519-14.217,9.498-14.26,4.973-.049,8.446,6.27,8.521,14.086ZM89.05,136.065c1.401-.036,2.509-1.209,2.472-2.608-.038-1.407-1.206-2.514-2.607-2.476-1.408.036-2.517,1.206-2.479,2.607.037,1.408,1.207,2.516,2.614,2.477Z"></path><circle class="cls-6" cx="88.984" cy="133.527" r="2.544"></circle><g class="cls-11"><path class="cls-10" d="M58.738,87.086s.773-10.072,2.352-13.932c.813-1.99,5.789-3.256,9.59-4.161,3.798-.904,9.859-2.714,11.036,2.623,1.176,5.337,3.074,9.227,4.341,10.946l-1.627-21.981-26.144,6.331-1.72,19.451.815,1.538,1.357-.815"></path><path class="cls-10" d="M191.026,87.086s-.772-10.072-2.351-13.932c-.815-1.99-5.79-3.256-9.589-4.161-3.801-.904-9.861-2.714-11.038,2.623-1.174,5.337-3.075,9.227-4.343,10.946l1.63-21.981,26.144,6.331,1.718,19.451-.815,1.538-1.357-.815"></path></g><path class="cls-1" d="M154.073,21.296s-.693,52.712-13.006,52.712h-32.013c-12.313,0-13.307-52.688-13.307-52.688l-6.049,17.889.098,24.546,4.295,3.415,1.952,10.54,2.731,6.149,52.702.097,2.439-4.393,2.05-7.416.294-4.685,5.82-16.618-8.009-29.548Z"></path><path class="cls-1" d="M192.85,70.445s2.534,18.183,9.24,21.462c6.707,3.278,0,0,0,0l-9.389-2.832.149-18.63Z"></path><path class="cls-1" d="M56.672,70.445s-2.534,18.183-9.241,21.462c-6.707,3.278,0,0,0,0l9.391-2.832-.149-18.63Z"></path><path class="cls-4" d="M194.655,88.992c3.192,1.045,6.403,2.153,9.312,3.853-1.556-.616-3.162-1.058-4.781-1.457-1.612-.411-3.236-.759-4.868-1.071-3.268-.615-6.547-1.138-9.847-1.538-3.292-.429-6.59-.79-9.903-1.071-3.312-.279-6.615-.56-9.934-.753-13.263-.816-26.563-1.02-39.873-1.034-13.306.007-26.607.256-39.871,1.039-3.316.192-6.622.474-9.933.754-3.311.279-6.616.635-9.903,1.07-3.299.4-6.579.922-9.847,1.538-1.63.306-3.256.66-4.874,1.065-1.612.399-3.225.84-4.781,1.457,2.907-1.699,6.118-2.812,9.318-3.86.269-.087.541-.161.815-.248-.017-.068-.037-.131-.05-.205-.056-.367-1.239-9.107.822-21.605.1-.598.528-1.083,1.115-1.246l3.38-.963c.735-26.217,11.532-38.547,11.869-38.927-9.648,15.524-9.56,33.935-9.393,38.223l21.006-5.97c.019-.006.03-.006.049-.012.088-.019.175-.031.262-.037.024,0,.057-.007.087-.007.107-.006.226.007.344.031.017,0,.036.013.061.019.087.019.168.049.26.087.038.019.063.038.1.057.067.038.138.081.205.13.019.013.039.019.057.038.013.013.024.025.037.037.019.019.043.031.063.051.014.019.572.571,1.462,1.401-.211-6.921.118-26.776,9.574-43.233-.199.577-7.701,22.512-5.116,47.097.839.672,1.722,1.331,2.583,1.911.416.286.672.759.678,1.263.007.081.187,7.918,3.648,14.584.049.1.086.205.118.311,8.608-.585,17.24-.822,25.854-.827,8.616.006,17.242.255,25.848.847.031-.112.07-.224.126-.33,3.46-6.666,3.641-14.503,3.641-14.584.012-.505.268-.977.685-1.263.859-.579,1.73-1.239,2.577-1.911,2.589-24.585-4.913-46.52-5.111-47.097,9.447,16.455,9.784,36.311,9.574,43.233.883-.829,1.444-1.381,1.461-1.401.019-.019.045-.031.061-.051.014-.012.021-.024.038-.037.019-.019.038-.025.057-.038.07-.049.138-.092.205-.137.032-.012.063-.031.094-.05.094-.038.18-.068.273-.093.019,0,.038-.013.057-.013.111-.024.232-.037.343-.031.031,0,.057.007.081.007.087.006.181.019.268.037.014.007.032.007.049.012l21.007,5.97c.169-4.287.256-22.7-9.391-38.223.335.38,11.134,12.71,11.862,38.927l3.386.963c.578.162,1.014.648,1.115,1.246,2.059,12.498.871,21.238.82,21.605-.012.075-.03.144-.049.211.277.081.545.161.819.249ZM190.835,87.87c.162-1.399.914-9.049-.685-19.468l-23.778-6.759c.213,4.027.307,12.76-1.978,21.088-.03.1-.067.199-.117.299.235.024.473.043.702.074,6.685.766,13.338,1.835,19.918,3.279,1.984.461,3.97.954,5.937,1.487ZM161.392,81.902c1.956-7.126,2.061-14.739,1.918-18.94-1.568,1.425-3.705,3.255-5.851,4.78-.132,2.197-.742,8.433-3.537,14.29,2.49.2,4.98.424,7.469.685-.067-.26-.079-.539,0-.815ZM95.598,82.015c-2.79-5.852-3.4-12.076-3.53-14.272-2.153-1.525-4.283-3.355-5.851-4.78-.138,4.207-.037,11.826,1.917,18.94.075.275.067.548,0,.804,2.486-.263,4.973-.492,7.464-.692ZM85.247,83.016c-.045-.087-.081-.187-.114-.286-2.289-8.328-2.189-17.06-1.984-21.088l-23.771,6.759c-1.599,10.408-.853,18.057-.692,19.464,1.973-.535,3.952-1.028,5.946-1.488,3.285-.728,6.597-1.337,9.914-1.898,3.324-.554,6.659-.977,9.995-1.381.238-.031.468-.049.705-.081Z"></path><g><path class="cls-4" d="M149.818,21.985v19.728h-13.984v-5.764h-3.152v26.629h4.761v14.89h-24.46v-14.89h4.742v-26.628h-3.141v5.764h-13.975v-19.729h49.209ZM145.617,37.521v-11.343h-40.816v11.343h5.581v-5.764h11.546v35.023h-4.751v6.496h16.066v-6.496h-4.751V31.758h11.546v5.764h5.579Z"></path><polygon class="cls-5" points="145.617 26.177 145.617 37.521 140.036 37.521 140.036 31.758 128.49 31.758 128.49 66.781 133.241 66.781 133.241 73.277 117.176 73.277 117.176 66.781 121.927 66.781 121.927 31.758 110.381 31.758 110.381 37.521 104.801 37.521 104.801 26.177 128.49 26.177 139.525 26.177 145.617 26.177"></polygon></g><path class="cls-8" d="M35.567,107.902c2.038-.462,4.793-1.051,8.17-1.703-2.075,1.415-4.53,3.191-7.21,5.327l-.961-3.623Z"></path><path class="cls-9" d="M110.21,161.97s.57,3.667-4.563,5.236c-5.131,1.57-37.639,11.258-41.347,10.734-3.707-.523-13.116-6.806-13.116-6.806l-2.282-8.116,13.924,8.681,47.384-9.729Z"></path><path class="cls-9" d="M139.33,161.26s-.41,3.687,4.787,5.035c5.196,1.345,38.094,9.612,41.773,8.927,3.68-.685,12.808-7.371,12.808-7.371l1.927-8.209-12.798,7.634-48.496-6.016Z"></path><path class="cls-9" d="M32.922,155.222s4.504,9.009,11.78,5.89l5.197,1.906-.519,3.812-10.914,1.385-2.944-1.731-2.599-11.262Z"></path><path class="cls-9" d="M217.325,152.749s-7.362,9.403-14.637,6.285l-2.34,1.509.519,3.811,10.914,1.386,2.943-1.732,2.6-11.258Z"></path><path class="cls-9" d="M103.452,223.528s26.686,13.454,56.902-4.853l-9.703-.662s-21.173,8.38-37.935,3.749l-9.263,1.766Z"></path><path class="cls-4" d="M130.505,198.736l1.847,2.2c.042.053,4.145,4.936,9.161,9.91,3.336,3.306,7.366,4.979,11.985,4.979,1.577,0,3.234-.203,4.907-.606,1.553-.378,3.24-.78,4.968-1.194,6.239-1.491,13.305-3.185,16.73-4.145.678-.192,1.435-.365,2.231-.547,4.56-1.053,10.81-2.506,14.122-9.141,2.49-4.979,5.848-11.441,8.34-16.177-2.159.995-4.422,2.074-6.029,2.92-2.477,1.301-5.722,1.932-9.917,1.932-2.494,0-4.943-.21-7.654-.451-5.417-.498-14.584-1.577-14.678-1.59l-.702-.078-.554-.444c-.082-.06-8.115-6.46-14.607-11.565-.263-.216-.503-.415-.72-.594q-.684-.583-1.092-.583c-2.082,0-8.134,1.877-21.393,5.987l-.815.258-.798-.301c-.09-.03-8.789-3.256-19.213-3.256-.853,0-1.703.022-2.532.065-1.044.053-6.904,2.837-14.397,14.693l-.486.761-.859.276c-.124.043-13.022,4.206-26.7,8.117l-.888.253-.84-.391c-.089-.036-5.441-2.519-10.534-4.86,2.778,4.103,6.329,9.221,9.454,13.235,5.459,7.03,12.34,13.527,25.532,13.527,1.655,0,3.413-.102,5.218-.307,13.419-1.517,16.875-2.129,18.735-2.453.629-.107,1.127-.198,1.764-.276.102-.013,11.09-1.433,14.174-8.35,3.18-7.108,3.822-8.801,3.846-8.866l1.122-2.993s.139-.775.367-1.016q0,.006.006.006l.022.019c.353.254.877,1.045.877,1.045ZM46.928,64.554c-2.915,1.175-5.812,2.387-8.644,3.718-2.838,1.297-5.627,2.688-8.291,4.241-2.458,1.416-4.817,2.97-6.899,4.723-.089.527-.173,1.103-.244,1.649-.09.773-.181,1.548-.241,2.328-.138,1.56-.192,3.132-.209,4.703-.03,3.144.185,6.287.582,9.4.431,3.119,1.001,6.221,1.847,9.214.421,1.501.889,2.981,1.44,4.408.27.722.57,1.423.883,2.107.155.341.317.678.479,1.001l.199.378c.233.121.474.24.701.348l1.397.665c.78.36,1.854.87,2.742,1.267.053-.043.102-.09.144-.132l-2.585-9.862c.546-.149,5.466-1.422,13.942-3.035-.684-.126-1.38-.276-2.057-.439-1.926-.479-3.834-1.067-5.676-1.811-.912-.389-1.818-.81-2.676-1.297-.859-.492-1.705-1.049-2.358-1.793,9.311,3.041,28.548,1.66,45.652-.102,15.644-1.614,31.319-2.657,47.078-2.694,15.759.036,31.446,1.079,47.08,2.694,17.115,1.764,36.355,3.144,45.662.102-.654.744-1.498,1.3-2.357,1.793-.856.487-1.764.906-2.676,1.297-1.848.744-3.75,1.331-5.681,1.811-.283.065-.57.132-.859.192,9.293,1.722,14.703,3.125,15.279,3.282l-2.477,9.394c.498-.222,1.001-.437,1.492-.665l1.399-.665c.227-.109.468-.227.702-.348l.192-.378c.167-.323.329-.66.486-1.001.313-.685.612-1.386.889-2.107.546-1.426,1.019-2.908,1.432-4.408.847-2.993,1.423-6.095,1.848-9.214.401-3.112.612-6.257.582-9.4-.012-1.571-.072-3.144-.204-4.703-.066-.78-.151-1.554-.247-2.328-.066-.546-.156-1.122-.247-1.649-2.082-1.753-4.439-3.306-6.899-4.723-2.664-1.553-5.451-2.944-8.295-4.241-2.825-1.331-5.728-2.543-8.644-3.718-1.459-.589-2.929-1.165-4.404-1.71-1.468-.569-2.957-1.108-4.444-1.649,3.124.516,6.221,1.228,9.285,2.015,1.998.517,3.991,1.098,5.957,1.716C194.953,28.243,161.395,4.357,124.762,4.357S54.569,28.243,40.539,64.927c1.972-.618,3.958-1.199,5.95-1.716,3.072-.786,6.167-1.499,9.293-2.015-1.495.54-2.976,1.079-4.452,1.649-1.469.545-2.937,1.121-4.402,1.709ZM231.668,85.778c.169,3.377.079,6.759-.299,10.119-.353,3.353-.99,6.677-1.876,9.971-.463,1.638-.997,3.257-1.627,4.864-.319.803-.659,1.603-1.031,2.4-.187.395-.384.786-.606,1.188l-.329.593c-.121.216-.217.378-.403.665l-.341.53-.534.275c-.57.294-1.037.516-1.555.757l-1.504.678c-1.009.431-2.022.839-3.036,1.234-.708.277-1.333.53-1.926.781l-1.673,6.358c-.042-.01-.546-.139-1.487-.365l-.09.665c1.847.965,5.476,2.922,6.713,3.943,2.489,2.057,2.664,5.315,2.112,11.403-.283,3.125-1.32,9.207-2.759,14.794-2.484,9.615-3.804,10.745-5.508,11.181-.864.222-2.195.444-3.486.444-2.626,0-6.203.073-8.608-.509-.618,2.188-2.381,7.893-5.873,15.02.175-.085.348-.156.504-.24,4.307-2.262,12.585-5.868,12.934-6.024l6.539-2.841-3.349,6.298c-.078.137-7.258,13.642-11.656,22.46-4.367,8.735-12.555,10.636-17.457,11.762-.738.175-1.438.337-2.008.492-3.517.99-10.637,2.687-16.917,4.198-.074.019-.151.038-.228.049-3.864,2.388-8.081,4.518-12.694,6.27-16.881,6.394-34.673,6.035-50.804.107-2.62.337-6.065.75-10.652,1.271-1.993.222-3.93.337-5.776.337-15.37,0-23.516-7.805-29.461-15.447-6.365-8.183-14.151-20.331-14.481-20.84l-4.514-7.042,7.63,3.431c3.652,1.644,14.512,6.671,17.619,8.111.251-.071.498-.144.744-.216-5.165-7.366-9.4-15.765-12.393-25.068-2.543.767-6.461,1.362-9.509,1.362-1.114,0-2.111-.083-2.878-.264-1.705-.389-3.648-2.032-6.293-11.35-1.535-5.409-2.681-11.314-3.016-14.353-.66-5.934-.54-9.112,1.926-11.166,1.487-1.241,6.502-3.875,7.54-4.414l-.222-1.831c-15.933,9.363-25.482,17.636-25.674,17.805l-11.394,9.999,8.117-12.801c6.424-10.145,13.845-18.345,20.672-24.663-.283-.114-.546-.227-.823-.341l-1.505-.678c-.516-.241-.984-.462-1.553-.757l-.534-.275-.342-.53c-.192-.289-.276-.45-.402-.665l-.336-.593c-.21-.402-.415-.793-.6-1.188-.379-.798-.72-1.597-1.031-2.4-.63-1.607-1.165-3.226-1.627-4.864-.893-3.294-1.524-6.616-1.877-9.971-.372-3.36-.468-6.743-.3-10.119.09-1.686.253-3.371.486-5.045.121-.84.247-1.68.415-2.514.174-.851.343-1.643.6-2.574l.18-.654.468-.367c2.658-2.088,5.525-3.665,8.44-5.063,2.4-1.127,4.847-2.124,7.313-3.031,6.886-19.111,18.728-36.058,34.289-47.869C86.138,6.454,105.057,0,124.764,0s38.626,6.454,54.714,18.663c15.562,11.811,27.403,28.759,34.285,47.865,2.472.912,4.913,1.902,7.319,3.036,2.914,1.397,5.782,2.975,8.439,5.063l.468.367.181.654c.263.93.431,1.723.599,2.574.169.834.301,1.674.414,2.514.235,1.672.403,3.357.486,5.043ZM217.769,141.434c.528-5.854.067-7.114-.527-7.594-.594-.498-2.604-1.636-4.56-2.699l-3.22,22.554c-.06.438-.307.835-.672,1.092l-4.608,3.222c-.365,1.846-.497,2.717-.947,4.523,2.634.612,6.951,1.087,9.009.689,1.868-2.026,4.883-14.612,5.525-21.787ZM211.788,120.984l3.45-13.082c-5.003-1.133-14.218-3.03-26.767-4.806-6.408,4.607-13.421,8.291-20.313,11.229,21.088,2.052,36.582,5.105,43.63,6.659ZM206.365,152.545l3.922-27.435c-1.745-.378-3.976-.845-6.641-1.355l-3.545,24.823c-.066.438-.307.84-.666,1.093l-13.293,9.297c-.313.222-.714.324-1.097.282l-40.06-4.553c-.642-.073-1.176-.517-1.363-1.127l-7.216-23.754c-1.933-.499-6.893-1.657-11.235-1.657s-9.318,1.158-11.249,1.657l-7.217,23.754c-.126.413-.415.757-.79.953-.121.066-.258.114-.397.145l-40.06,8.913c-.126.025-.234.038-.355.038-.323,0-.648-.096-.918-.29l-13.287-9.304c-.372-.258-.619-.666-.678-1.122l-3.582-29.052c-1.488.289-2.831.564-4.031.815-.851.469-1.692.937-2.519,1.406l3.802,30.786,19.312,13.528,48.722-10.839,7.192-23.695c.181-.596.678-1.034,1.284-1.13,1.824-.293,3.418-.443,4.769-.443,1.336,0,2.939.149,4.757.443.612.096,1.109.534,1.284,1.13l7.377,24.283,48.994,5.571,18.785-13.16ZM197.014,147.434l3.467-24.274c-9.779-1.78-24.079-3.933-41.596-5.277-15.813,5.454-29.058,7.078-29.856,7.132l-.924.066c5.044.433,9.796,1.789,10.035,1.86.524.156.932.557,1.094,1.081l7.168,23.599,38.399,4.362,12.213-8.549ZM199.683,161.159l-1.627,1.139-4.379,3.072-4.745,3.323c-.323.222-.72.324-1.105.282l-47.214-5.368-3.437-.391c-.636-.073-1.17-.517-1.357-1.132l-7.389-24.331c-1.235-.168-2.334-.254-3.256-.254-.937,0-2.029.085-3.264.254l-7.175,23.629c-.168.552-.623.972-1.188,1.096l-50.33,11.207c-.119.023-.239.035-.353.035-.323,0-.648-.096-.925-.293l-1.829-1.272-5.476-3.832v-.013l-2.213-1.547c.156.498.335.985.511,1.469l-.007.007c.426,1.265,4.667,13.467,13.287,25.41,9.232-2.723,17.217-5.255,19.765-6.065,5.2-8.015,12.604-15.964,17.866-16.239.905-.043,1.848-.071,2.783-.071,2.574,0,5.034.185,7.312.455-1.936-1.758-2.333-3.822-2.614-4.734,0,0,6.713,5.249,15.261,4.153,8.549-1.104,13.857-6.03,13.857-6.03,0,0-.024,3.594-3.75,6.377,7.163-2.166,10.126-2.91,12.154-2.91,2.238,0,3.341.936,4.307,1.76.187.149.373.311.587.486,5.508,4.336,12.13,9.598,14.068,11.14,2.243.263,9.357,1.073,13.839,1.487,2.584.233,4.919.431,7.204.431.738,0,1.429-.03,2.082-.073,2.964-5.655,5.628-12.064,7.889-19.297.302-1.112.598-2.234.861-3.362ZM182.262,101.376c-.012-.007-.023-.014-.036-.014-3.791-.282-7.582-.54-11.386-.754-5.278-.301-10.559-.553-15.837-.774-.307.457-.929,1.356-1.824,2.578-2.873,3.888-8.572,11.02-15.88,17.067,10.343-1.854,28.284-6.443,43.804-17.271.389-.276.774-.563,1.158-.832ZM147.643,102.449c.437-.546.845-1.073,1.21-1.553-3.802.384-7.546.936-11.205,1.632-12.531,2.345-24.103,6.245-33.731,10.24,6.822-.33,13.995-.527,21.483-.527,4.528,0,8.932.078,13.214.204,3.684-3.541,6.791-7.163,9.029-9.995ZM151.8,220.74c-5.218-.385-9.963-2.555-13.793-6.346-.198-.203-.389-.397-.582-.593-1.852.372-3.73.648-5.656.816-.809.03-1.577.101-2.423.101l-1.255.013-.479-.013c-5.094,7.577-16.407,9.053-16.924,9.119-.467.053-.851.119-1.38.216,6.306,1.728,12.742,2.477,19.089,2.051,6.364-.425,14.632-1.805,23.401-5.363ZM131.638,212.094c1.224-.096,2.453-.253,3.689-.438-1.603-1.666-3.017-3.216-4.134-4.469-.546,1.254-1.27,2.903-2.225,5.028h.282c.762.001,1.597-.082,2.388-.121ZM127.751,120.979c2.117-1.278,4.151-2.742,6.082-4.301-2.766-.048-5.572-.083-8.433-.083-11.746,0-22.718.481-32.664,1.229-9.977,4.877-16.078,8.89-16.22,8.992l-9.581,6.389,6.581-9.443c1.086-1.568,2.238-3.054,3.425-4.469-11.05,1.235-20.251,2.699-27.126,3.965l3.52,28.542,12.112,8.483,38.452-8.549,7.198-23.713c.121-.39.384-.72.727-.919.114-.073.234-.126.365-.162.222-.06,4.067-1.158,8.501-1.698l7.061-4.264ZM132.173,99.209c-2.677-.042-5.357-.066-8.034-.072h-.006c-3.928.006-7.864.048-11.807.126l-7.264,3.443c-.006.006-.048.024-.102.056-1.092.533-10.63,5.345-19.605,13.929,8.045-4.229,19.868-9.754,33.781-14.038,4.168-1.277,8.535-2.454,13.036-3.444ZM81.403,114.439c3.767-3.737,7.654-6.82,11.086-9.232-13.227,3.072-25.403,7.582-36.07,12.489,6.94-1.122,15.344-2.291,24.984-3.257ZM83.905,102.911c4.432-1.242,9.005-2.328,13.688-3.24-6.718.246-13.442.557-20.154.936-3.9.216-7.781.48-11.663.773-1.944.149-3.876.305-5.802.516-.552.053-1.092.114-1.643.185-5.063,3.029-24.481,15.219-37.811,31.158,12.954-9.002,35.52-22.53,63.385-30.328ZM48.158,165.712c-.253-.803-.491-1.62-.72-2.436l-5.981-4.185c-.379-.264-.619-.666-.679-1.123l-2.915-23.695c-2.16,1.158-4.655,2.578-5.321,3.137-.576.474-1.014,1.692-.389,7.337.774,6.964,4.301,20.085,6.197,21.992,2.28.402,7.331-.299,9.809-1.027ZM43.737,106.198c-3.378.654-6.132,1.241-8.17,1.703l.961,3.623c2.68-2.137,5.134-3.912,7.21-5.327Z"></path></g></g><g><path class="cls-8" d="M283.651,98.192h-26.46v-13.72h69.02v13.72h-26.32v77.84h-16.24v-77.84Z"></path><path class="cls-8" d="M324.895,107.292h13.3l1.12,12.18h.56c4.9-8.96,12.18-13.86,19.46-13.86,3.5,0,5.74.42,7.84,1.4l-2.8,14c-2.38-.7-4.2-1.12-7.14-1.12-5.46,0-12.04,3.78-16.24,14.14v42h-16.1v-68.74Z"></path><path class="cls-8" d="M411.273,132.072c-.14-7.28-3.22-13.439-12.46-13.439-6.86,0-13.3,3.08-19.32,6.72l-5.88-10.78c7.56-4.76,17.22-8.96,28.14-8.96,17.22,0,25.62,10.5,25.62,29.68v40.74h-13.16l-1.26-7.56h-.42c-6.16,5.18-13.16,9.239-21.28,9.239-12.04,0-20.44-8.12-20.44-20.159,0-14.7,12.32-22.4,40.46-25.48ZM396.293,165.112c5.6,0,9.94-2.8,14.98-7.56v-15.4c-18.62,2.38-24.78,7.28-24.78,14.14,0,6.16,4.06,8.82,9.8,8.82Z"></path><path class="cls-8" d="M432.118,107.292h16.38l10.92,35.7c1.82,6.72,3.92,13.72,5.74,20.72h.56c1.96-7,3.92-14,5.88-20.72l10.92-35.7h15.54l-23.38,68.74h-18.62l-23.939-68.74Z"></path><path class="cls-8" d="M504.232,86.152c0-5.46,4.199-9.24,9.939-9.24s9.94,3.78,9.94,9.24c0,5.32-4.2,9.1-9.94,9.1s-9.939-3.78-9.939-9.1ZM506.051,107.292h16.101v68.74h-16.101v-68.74Z"></path><path class="cls-8" d="M539.076,157.831c6.16,4.76,12.04,7.7,19.04,7.7,7.42,0,10.92-3.5,10.92-8.26,0-5.74-7.42-8.26-14.7-11.061-9.1-3.359-19.319-8.539-19.319-20.02,0-12.04,9.659-20.58,25.06-20.58,9.52,0,17.22,3.92,22.82,8.26l-7.421,9.801c-4.76-3.5-9.659-5.88-15.119-5.88-6.86,0-10.08,3.22-10.08,7.56,0,5.32,6.859,7.56,14.279,10.22,9.381,3.5,19.74,7.98,19.74,20.86,0,11.76-9.38,21.279-26.74,21.279-9.38,0-19.319-4.06-26.039-9.52l7.56-10.36Z"></path><path class="cls-8" d="M663.534,82.792c11.2,0,20.301,5.46,26.04,11.62l-8.96,10.08c-4.76-4.62-9.939-7.56-16.939-7.56-14.98,0-25.76,12.6-25.76,33.18,0,20.86,9.939,33.46,25.199,33.46,8.12,0,14.141-3.36,19.32-9.1l8.96,9.939c-7.42,8.54-16.94,13.3-28.56,13.3-23.24,0-41.58-16.8-41.58-47.18,0-29.959,18.76-47.74,42.279-47.74Z"></path><path class="cls-8" d="M701.46,84.472h16.24v91.56h-16.24v-91.56Z"></path></g></g></svg> 