<svg width="30" height="30" version="1.1" xmlns="http://www.w3.org/2000/svg" desc="Created with imagetracer.js version 1.2.6" ><path fill="rgb(0,0,0)" stroke="rgb(0,0,0)" stroke-width="1" opacity="0" d="M 0 0 L 14.5 0 L 15.5 1 L 17.5 0 L 19.5 0 L 21.5 1 L 23 0.5 L 16.5 8 L 14.5 7 L 12.5 11 L 11.5 8 L 10 10.5 L 10 12.5 L 9.5 14 L 8.5 12 L 5 13.5 L 8 14.5 L 4.5 16 L 2.5 15 L 3 16.5 L 0.5 20 L 1 18.5 L 0 15.5 L 0 11.5 Q -1.8 5.3 1 3.5 L 0 0 Z M 4 2 L 3 5 L 4 5 L 4 2 Z M 18 2 L 18 4 L 20 3 L 18 2 Z M 15 5 L 16 6 L 17 7 Q 18 4 15 5 Z M 12 6 L 12 8 L 14 7 L 12 6 Z " /><path fill="rgb(0,0,0)" stroke="rgb(0,0,0)" stroke-width="1" opacity="0" d="M 29.5 5 L 30 7.5 L 29 7.5 L 29.5 5 Z " /><path fill="rgb(0,0,0)" stroke="rgb(0,0,0)" stroke-width="1" opacity="0" d="M 28.5 12 L 30 12.5 L 27 14.5 L 26.5 18 L 26 14.5 L 28.5 12 Z " /><path fill="rgb(0,0,0)" stroke="rgb(0,0,0)" stroke-width="1" opacity="0" d="M 29.5 14 L 30 30 L 25.5 29 L 24 29.5 L 25 26.5 L 24 23.5 L 27.5 19 L 28.5 21 L 29 18.5 L 28 15.5 L 29.5 14 Z M 27 22 L 25 24 L 26 26 L 27 24 L 27 22 Z M 26 26 L 27 29 L 28 27 L 26 26 Z " /><path fill="rgb(0,0,0)" stroke="rgb(0,0,0)" stroke-width="1" opacity="0" d="M 0.5 25 Q 5.6 24.4 7 27.5 L 5.5 27 L 4 27.5 L 5.5 30 Q 3.3 30.8 4 28.5 L 3 28.5 Q 3.7 31.5 0 30 Q -1.8 25.5 3.5 27 L 3.5 26 Q -0.5 26.8 0.5 25 Z " /><path fill="rgb(0,0,0)" stroke="rgb(0,0,0)" stroke-width="1" opacity="0" d="M 12.5 26 Q 14.8 25.3 14 27.5 L 17.5 29 L 19.5 29 L 21 29.5 L 19.5 30 L 17.5 30 Q 12 31.5 10.5 29 L 7.5 30 L 7.5 29 Q 12 29.5 12.5 26 Z " /><path fill="rgb(1,0,0)" stroke="rgb(1,0,0)" stroke-width="1" opacity="0" d="M 3.5 2 L 4 4.5 L 3 4.5 L 3.5 2 Z " /><path fill="rgb(250,250,250)" stroke="rgb(250,250,250)" stroke-width="1" opacity="0.12549019607843137" d="M 21.5 0 L 23.5 0 L 25 0.5 L 18.5 6 L 17 5.5 L 18 7.5 L 15.5 8 L 13.5 9 L 12 8.5 L 13 11.5 L 11 12 L 9.5 15 L 5.5 14 L 4.5 17 L 2.5 16 L 1 18.5 Q 3.3 19.7 0.5 21 L 0 18.5 L 2.5 15 L 7.5 13 L 11 9.5 L 14.5 5 L 16.5 5 L 21.5 0 Z " /><path fill="rgb(250,250,250)" stroke="rgb(250,250,250)" stroke-width="1" opacity="0.12549019607843137" d="M 27.5 12 L 30 13.5 L 28 17.5 L 29 20.5 L 26 25.5 L 27 28.5 Q 25.5 31.5 24 28.5 L 24.5 27 L 25.5 29 L 26 26.5 L 24 22.5 Q 27.5 20.5 27 14.5 Q 24.8 13.3 27.5 12 Z M 28 18 L 27 21 L 28 21 L 28 18 Z " /><path fill="rgb(250,250,250)" stroke="rgb(250,250,250)" stroke-width="1" opacity="0.12549019607843137" d="M 4.5 25 L 7 26.5 L 6 28.5 L 8 28.5 Q 5.7 32.2 3.5 27 L 0 26.5 L 4.5 25 Z " /><path fill="rgb(250,250,250)" stroke="rgb(250,250,250)" stroke-width="1" opacity="0.12549019607843137" d="M 11.5 26 Q 15 28 10.5 30 Q 7 28 11.5 26 Z " /><path fill="rgb(250,250,250)" stroke="rgb(250,250,250)" stroke-width="1" opacity="0.12549019607843137" d="M 17.5 28 L 20 28.5 Q 17.9 31.8 17.5 28 Z " /><path fill="rgb(59,59,59)" stroke="rgb(59,59,59)" stroke-width="1" opacity="0.996078431372549" d="M 23.5 5 Q 25.8 4.3 25 6.5 L 22 6.5 L 23.5 5 Z " /><path fill="rgb(59,59,59)" stroke="rgb(59,59,59)" stroke-width="1" opacity="0.996078431372549" d="M 26.5 7 L 26 8.5 L 25.5 10 L 25 8.5 L 26.5 7 Z " /><path fill="rgb(59,59,59)" stroke="rgb(59,59,59)" stroke-width="1" opacity="0.996078431372549" d="M 23.5 11 L 23 12.5 L 24 14.5 L 22 14.5 L 23 18.5 L 21 17.5 Q 20.4 12.4 23.5 11 Z " /><path fill="rgb(59,59,59)" stroke="rgb(59,59,59)" stroke-width="1" opacity="0.996078431372549" d="M 4.5 19 L 5.5 21 L 3 20.5 L 4.5 19 Z " /><path fill="rgb(59,59,59)" stroke="rgb(59,59,59)" stroke-width="1" opacity="0.996078431372549" d="M 21.5 20 L 21 21.5 L 20.5 25 L 16.5 24 Q 15.3 26.2 14 23.5 L 16.5 23 Q 20.9 24.5 20 21.5 L 21.5 20 Z " /><path fill="rgb(59,59,59)" stroke="rgb(59,59,59)" stroke-width="1" opacity="0.996078431372549" d="M 11.5 21 L 14 21.5 L 10.5 23 L 11.5 21 Z " /><path fill="rgb(254,254,254)" stroke="rgb(254,254,254)" stroke-width="1" opacity="0.7372549019607844" d="M 29.5 3 L 29 4.5 L 28.5 6 L 28 4.5 L 29.5 3 Z " /><path fill="rgb(254,254,254)" stroke="rgb(254,254,254)" stroke-width="1" opacity="0.7372549019607844" d="M 19.5 5 L 18.5 7 L 19.5 5 Z " /><path fill="rgb(254,254,254)" stroke="rgb(254,254,254)" stroke-width="1" opacity="0.7372549019607844" d="M 14.5 8 L 14 9.5 L 13.5 12 L 13 9.5 L 14.5 8 Z " /><path fill="rgb(254,254,254)" stroke="rgb(254,254,254)" stroke-width="1" opacity="0.7372549019607844" d="M 29.5 9 L 30 10.5 L 28 11.5 L 29.5 9 Z " /><path fill="rgb(254,254,254)" stroke="rgb(254,254,254)" stroke-width="1" opacity="0.7372549019607844" d="M 3.5 17 L 2.5 19 L 3.5 17 Z " /><path fill="rgb(254,254,254)" stroke="rgb(254,254,254)" stroke-width="1" opacity="0.7372549019607844" d="M 25.5 20 L 24.5 22 L 25.5 20 Z " /><path fill="rgb(254,254,254)" stroke="rgb(254,254,254)" stroke-width="1" opacity="0.7372549019607844" d="M 0.5 23 L 5 24.5 L 1.5 25 L 0.5 23 Z " /><path fill="rgb(254,254,254)" stroke="rgb(254,254,254)" stroke-width="1" opacity="0.7372549019607844" d="M 23.5 23 L 24 26.5 L 23 26.5 L 23.5 23 Z " /><path fill="rgb(254,254,254)" stroke="rgb(254,254,254)" stroke-width="1" opacity="0.7372549019607844" d="M 12.5 25 L 15 26.5 L 13.5 26 L 12.5 25 Z " /><path fill="rgb(254,254,254)" stroke="rgb(254,254,254)" stroke-width="1" opacity="0.7372549019607844" d="M 7.5 27 L 8.5 29 L 7.5 27 Z " /><path fill="rgb(254,254,254)" stroke="rgb(254,254,254)" stroke-width="1" opacity="0.7372549019607844" d="M 20.5 28 L 21.5 30 L 20.5 28 Z " /><path fill="rgb(31,31,31)" stroke="rgb(31,31,31)" stroke-width="1" opacity="0.996078431372549" d="M 10 17 Q 13 16 12 19 Q 9 20 10 17 Z " /><path fill="rgb(124,124,124)" stroke="rgb(124,124,124)" stroke-width="1" opacity="0.9647058823529412" d="M 23.5 3 L 21.5 6 L 23.5 3 Z " /><path fill="rgb(124,124,124)" stroke="rgb(124,124,124)" stroke-width="1" opacity="0.9647058823529412" d="M 27.5 9 L 24.5 13 L 27.5 9 Z " /><path fill="rgb(124,124,124)" stroke="rgb(124,124,124)" stroke-width="1" opacity="0.9647058823529412" d="M 12.5 14 L 15 14.5 L 12.5 15 L 12.5 14 Z " /><path fill="rgb(124,124,124)" stroke="rgb(124,124,124)" stroke-width="1" opacity="0.9647058823529412" d="M 23.5 15 L 24 17.5 L 23 17.5 L 23.5 15 Z " /><path fill="rgb(124,124,124)" stroke="rgb(124,124,124)" stroke-width="1" opacity="0.9647058823529412" d="M 2.5 21 L 5 22.5 L 2 23 L 2.5 21 Z " /><path fill="rgb(124,124,124)" stroke="rgb(124,124,124)" stroke-width="1" opacity="0.9647058823529412" d="M 6.5 23 L 7.5 25 L 6.5 23 Z " /><path fill="rgb(124,124,124)" stroke="rgb(124,124,124)" stroke-width="1" opacity="0.9647058823529412" d="M 17.5 25 L 20 25.5 L 17.5 26 L 17.5 25 Z " /><path fill="rgb(0,0,0)" stroke="rgb(0,0,0)" stroke-width="1" opacity="0.9921568627450981" d="M 21.5 22 L 22 26.5 L 21 26.5 L 21.5 22 Z " /><path fill="rgb(0,1,1)" stroke="rgb(0,1,1)" stroke-width="1" opacity="1" d="M 14.5 17 L 13.5 19 L 14.5 17 Z " /><path fill="rgb(0,1,1)" stroke="rgb(0,1,1)" stroke-width="1" opacity="1" d="M 19.5 24 L 20.5 26 L 19.5 24 Z " /><path fill="rgb(46,46,46)" stroke="rgb(46,46,46)" stroke-width="1" opacity="1" d="M 23.5 6 Q 26 7.2 25 11 L 22 12.5 L 21 17.5 L 22.5 20 L 20 21.5 Q 20.9 24.9 15.5 23 L 11.5 21 L 7.5 23 L 5 21.5 L 11.5 19 L 13.5 19 Q 15.8 19.8 15 17.5 Q 12.8 16.3 15.5 15 Q 19.9 16.5 19 13.5 L 21 10.5 L 20.5 9 L 22 8.5 L 21.5 7 L 23.5 6 Z " /><path fill="rgb(201,201,201)" stroke="rgb(201,201,201)" stroke-width="1" opacity="0.9921568627450981" d="M 20.5 6 L 19.5 8 L 20.5 6 Z " /><path fill="rgb(201,201,201)" stroke="rgb(201,201,201)" stroke-width="1" opacity="0.9921568627450981" d="M 16.5 10 L 17.5 12 L 16.5 10 Z " /><path fill="rgb(201,201,201)" stroke="rgb(201,201,201)" stroke-width="1" opacity="0.9921568627450981" d="M 24.5 18 L 25 19.5 L 23 20.5 L 24.5 18 Z " /><path fill="rgb(201,201,201)" stroke="rgb(201,201,201)" stroke-width="1" opacity="0.9921568627450981" d="M 10.5 24 L 9.5 26 L 10.5 24 Z " /><path fill="rgb(201,201,201)" stroke="rgb(201,201,201)" stroke-width="1" opacity="0.9921568627450981" d="M 15.5 25 L 16.5 27 L 15.5 25 Z " /><path fill="rgb(237,237,237)" stroke="rgb(237,237,237)" stroke-width="1" opacity="0.996078431372549" d="M 27.5 1 L 28.5 3 L 27.5 1 Z " /><path fill="rgb(237,237,237)" stroke="rgb(237,237,237)" stroke-width="1" opacity="0.996078431372549" d="M 14.5 11 L 15 13.5 L 14 13.5 L 14.5 11 Z " /><path fill="rgb(237,237,237)" stroke="rgb(237,237,237)" stroke-width="1" opacity="0.996078431372549" d="M 10.5 16 L 13 16.5 L 10.5 17 L 10.5 16 Z " /><path fill="rgb(237,237,237)" stroke="rgb(237,237,237)" stroke-width="1" opacity="0.996078431372549" d="M 4.5 18 L 2.5 21 L 4.5 18 Z " /><path fill="rgb(237,237,237)" stroke="rgb(237,237,237)" stroke-width="1" opacity="0.996078431372549" d="M 22.5 23 L 23 25.5 L 22 25.5 L 22.5 23 Z " /><path fill="rgb(254,254,254)" stroke="rgb(254,254,254)" stroke-width="1" opacity="0.9921568627450981" d="M 26.5 0 L 30 1.5 L 28.5 4 L 27.5 1 Q 21.4 2.4 19 7.5 L 17.5 11 L 15 9.5 L 14.5 11 L 14 9.5 Q 15.3 6.8 16.5 9 Q 18.8 9.8 18 7.5 L 22.5 2 L 26.5 0 Z " /><path fill="rgb(254,254,254)" stroke="rgb(254,254,254)" stroke-width="1" opacity="0.9921568627450981" d="M 27.5 5 L 29 10.5 L 25 14.5 L 25 17.5 L 26 19.5 L 23.5 23 L 23 21.5 L 25 18.5 L 24 14.5 L 26.5 11 Q 29.1 11.8 28 8.5 L 27.5 5 Z " /><path fill="rgb(254,254,254)" stroke="rgb(254,254,254)" stroke-width="1" opacity="0.9921568627450981" d="M 12.5 12 Q 14.8 11.3 14 13.5 L 12 13.5 Q 13.1 16.8 10.5 16 L 4.5 18 L 2 20.5 L 1 22.5 L 8 25.5 L 8.5 27 Q 9 23.5 13.5 24 L 16.5 27 L 17.5 26 L 22.5 28 L 24 27.5 L 22.5 30 L 18.5 27 L 15 28 L 13.5 25 L 10 26 Q 11.1 28.7 8.5 28 L 4.5 24 Q 0.8 24.8 0 22.5 L 4.5 17 L 11 15 L 12.5 12 Z " /><path fill="rgb(0,0,0)" stroke="rgb(0,0,0)" stroke-width="1" opacity="1" d="M 24.5 3 L 26 3.5 L 21.5 7 L 24.5 3 Z " /><path fill="rgb(0,0,0)" stroke="rgb(0,0,0)" stroke-width="1" opacity="1" d="M 20.5 8 L 20 9.5 L 19.5 11 L 19 9.5 L 20.5 8 Z " /><path fill="rgb(0,0,0)" stroke="rgb(0,0,0)" stroke-width="1" opacity="1" d="M 26.5 9 L 24.5 12 L 26.5 9 Z " /><path fill="rgb(0,0,0)" stroke="rgb(0,0,0)" stroke-width="1" opacity="1" d="M 16.5 11 L 18 13.5 L 16 13.5 L 14.5 16 L 13 15.5 L 15 15 L 16.5 11 Z " /><path fill="rgb(0,0,0)" stroke="rgb(0,0,0)" stroke-width="1" opacity="1" d="M 22.5 14 L 23 17.5 L 22 17.5 L 22.5 14 Z " /><path fill="rgb(0,0,0)" stroke="rgb(0,0,0)" stroke-width="1" opacity="1" d="M 6.5 18 L 5 20.5 Q 4.3 22.8 6.5 22 L 10 24.5 L 8.5 25 L 3 21.5 L 6.5 18 Z " /><path fill="rgb(0,0,0)" stroke="rgb(0,0,0)" stroke-width="1" opacity="1" d="M 22.5 20 L 21.5 22 L 22.5 20 Z " /><path fill="rgb(0,0,0)" stroke="rgb(0,0,0)" stroke-width="1" opacity="1" d="M 11.5 22 L 14 22.5 L 11.5 23 L 11.5 22 Z " /></svg>